<?xml version="1.0" standalone="no"?>
<!DOCTYPE svg PUBLIC "-//W3C//DTD SVG 20010904//EN"
 "http://www.w3.org/TR/2001/REC-SVG-20010904/DTD/svg10.dtd">
<svg version="1.0" xmlns="http://www.w3.org/2000/svg"
 width="264.000000pt" height="264.000000pt" viewBox="0 0 264.000000 264.000000"
 preserveAspectRatio="xMidYMid meet">
<metadata>
Created by potrace 1.11, written by Peter Selinger 2001-2013
</metadata>
<g transform="translate(0.000000,264.000000) scale(0.100000,-0.100000)"
fill="#000000" stroke="none">
<path d="M1257 2566 c-3 -7 0 -19 6 -25 6 -6 7 -11 1 -11 -6 0 -10 -18 -9 -41
1 -44 -2 -48 -39 -51 -25 -2 -32 -16 -27 -55 2 -16 0 -16 -33 -3 -18 7 -26 6
-26 -1 0 -7 -12 -9 -29 -7 -21 3 -32 -1 -41 -16 -9 -15 -10 -21 -1 -24 6 -2
11 -8 11 -13 0 -5 -32 -9 -71 -9 -53 0 -75 -4 -87 -17 -16 -16 -16 -16 1 -10
21 8 22 -6 2 -26 -8 -8 -11 -18 -7 -23 4 -5 -1 -2 -10 5 -10 7 -18 17 -18 22
0 5 8 6 18 3 16 -5 16 -5 0 6 -9 6 -16 16 -14 23 1 6 1 8 -2 4 -2 -4 -11 -2
-20 5 -13 11 -14 11 -7 -2 5 -8 11 -24 12 -35 3 -19 -3 -21 -74 -23 -133 -5
-129 -4 -129 -29 0 -15 3 -19 11 -13 7 6 15 6 22 -1 8 -8 13 -7 18 2 5 8 4 10
-3 5 -8 -5 -10 -2 -6 8 3 9 14 16 23 16 10 0 12 -3 5 -8 -6 -4 -10 -14 -9 -22
2 -13 -11 -16 -66 -18 -71 -2 -76 1 -70 46 2 13 1 14 -52 16 -20 0 -37 -2 -37
-6 0 -3 -10 -4 -22 0 -21 5 -22 4 -8 -13 8 -10 10 -16 4 -12 -8 4 -12 -11 -13
-48 -1 -53 0 -55 27 -56 15 -1 29 -1 32 -1 3 0 6 -14 7 -31 4 -52 6 -55 21
-49 10 3 13 1 8 -6 -5 -8 -1 -10 10 -5 11 4 15 2 11 -4 -12 -19 18 -32 83 -35
l65 -3 1 -175 c0 -114 -3 -178 -10 -182 -8 -5 -7 -8 1 -8 7 0 10 -7 7 -15 -4
-8 -10 -15 -16 -15 -5 0 -6 5 -2 11 5 8 1 8 -13 0 -11 -6 -23 -7 -27 -4 -3 3
-6 -10 -6 -30 0 -22 -5 -37 -12 -38 -7 -1 -36 -2 -65 -3 -28 -1 -55 -5 -60 -9
-4 -5 -3 -8 2 -7 22 5 25 -1 15 -22 -10 -21 -9 -21 9 2 12 15 21 19 21 11 0
-11 3 -11 18 0 14 11 15 11 5 0 -6 -7 -9 -20 -6 -27 6 -16 -13 -19 -22 -4 -4
6 -12 7 -18 3 -18 -11 -147 -13 -148 -2 -1 5 -3 14 -4 19 -1 6 -3 17 -4 26 -1
20 -61 16 -79 -6 -10 -13 -11 -13 -6 3 6 18 -12 23 -31 9 -15 -11 -18 -35 -3
-26 10 6 10 4 2 -7 -6 -8 -10 -32 -10 -54 1 -35 4 -40 23 -39 13 1 20 -3 17
-7 -3 -5 2 -9 11 -9 11 0 15 -5 11 -15 -7 -20 22 -47 45 -40 24 8 39 -23 18
-36 -11 -7 -11 -9 -1 -9 7 0 11 -4 8 -8 -2 -4 4 -9 15 -9 11 -1 17 2 14 8 -4
5 4 5 20 -1 14 -5 29 -9 33 -9 4 1 17 1 29 0 21 -1 22 -3 22 -178 0 -97 -4
-171 -8 -164 -6 10 -10 9 -14 -3 -4 -9 -1 -15 6 -13 7 1 12 -5 12 -13 0 -10
-10 -15 -30 -15 -21 0 -30 -5 -30 -17 0 -9 -3 -20 -7 -23 -4 -4 -4 -14 -1 -22
5 -13 0 -15 -25 -11 -18 2 -32 1 -32 -4 0 -5 -5 -6 -10 -3 -6 4 -17 1 -25 -5
-11 -9 -15 -9 -15 -1 0 6 -4 11 -8 11 -4 0 -8 -11 -8 -24 0 -22 4 -24 50 -17
5 0 2 9 -5 19 -13 15 -12 16 3 4 25 -20 12 -38 -29 -40 -20 -2 -41 -6 -46 -9
-6 -4 -7 -1 -2 7 5 9 4 11 -4 6 -6 -4 -32 -9 -57 -10 -36 -2 -47 2 -56 17 -7
15 -7 18 2 12 8 -5 11 -1 8 11 -3 16 -13 19 -66 20 l-62 2 -1 -37 c0 -20 -2
-46 -3 -59 -3 -27 4 -33 45 -34 16 -1 26 -4 22 -7 -5 -3 -8 -12 -7 -18 1 -7 2
-20 3 -28 0 -8 8 -15 16 -15 8 0 15 -4 15 -10 0 -5 -6 -8 -12 -6 -7 1 -10 1
-5 -1 4 -3 4 -10 0 -16 -4 -7 1 -6 10 2 20 16 23 1 5 -18 -11 -11 -9 -11 9 0
16 10 19 17 12 26 -6 7 -7 18 -3 24 5 9 10 5 16 -11 5 -14 4 -28 -4 -37 -6 -8
-7 -13 -2 -12 5 1 39 1 77 0 l67 -1 0 -229 c0 -174 3 -230 13 -233 10 -3 1915
-2 1955 1 9 1 12 54 12 231 l0 230 66 0 c56 0 65 2 60 16 -4 9 -2 13 5 8 7 -4
9 0 5 13 -5 14 -1 19 16 20 12 1 25 -3 29 -9 4 -6 10 -1 14 13 4 13 13 27 19
31 6 4 11 13 11 19 0 7 6 14 13 17 7 2 10 -2 6 -11 -3 -8 -2 -17 3 -20 4 -3 9
10 10 29 2 19 4 37 4 41 1 5 1 27 0 51 l-1 42 -66 -1 c-43 -1 -64 -5 -61 -13
2 -6 1 -20 -3 -31 -8 -20 -6 -20 -132 -16 -10 1 -18 6 -18 12 0 5 4 8 8 5 4
-2 8 6 8 20 0 13 -4 24 -8 24 -4 0 -8 -5 -8 -12 0 -9 -3 -9 -12 0 -7 7 -31 12
-53 12 -50 0 -56 5 -45 35 10 26 -2 35 -46 35 -18 0 -24 5 -22 18 2 9 8 20 13
24 6 5 5 8 -2 8 -10 0 -13 41 -13 169 0 191 -6 179 88 176 41 -2 52 1 48 11
-6 14 9 20 17 7 2 -5 2 -2 1 4 -2 7 5 17 14 22 16 10 16 10 0 11 -10 0 -18 -4
-18 -10 0 -5 -4 -10 -10 -10 -5 0 -7 7 -3 16 4 11 15 15 34 12 29 -5 34 2 30
43 -2 21 36 32 43 12 3 -8 1 -11 -4 -8 -6 3 -10 0 -10 -7 0 -9 -3 -9 -10 2 -7
12 -9 10 -8 -7 2 -19 4 -20 25 -6 13 8 21 19 18 23 -3 5 -2 11 3 14 4 2 8 33
7 68 l-1 63 -65 0 c-56 0 -65 -2 -66 -18 -2 -15 1 -16 13 -7 20 17 17 7 -5
-19 -18 -21 -26 -22 -103 -18 -46 3 -85 6 -88 7 -3 1 -9 2 -14 1 -5 -1 -5 4 1
11 15 19 2 44 -24 45 -13 0 -27 1 -33 2 -5 1 -10 17 -10 36 0 33 -2 34 -30 31
-17 -2 -33 0 -36 5 -3 5 1 9 8 9 10 0 10 2 -1 9 -9 6 -10 11 -2 15 6 4 8 13 4
19 -5 7 -8 85 -9 175 l0 162 66 0 c59 0 66 2 67 20 1 13 -3 18 -10 14 -7 -3
-4 1 5 9 10 8 16 16 13 18 -2 3 7 5 20 5 14 0 25 -5 25 -10 0 -6 5 -3 10 6 7
11 19 15 38 13 15 -2 21 -2 14 1 -10 5 -9 10 5 21 10 8 12 12 6 8 -7 -3 -22
-1 -34 6 -12 6 -19 7 -16 2 3 -5 2 -15 -2 -22 -6 -9 -9 -4 -8 14 0 24 2 26 28
21 16 -3 30 -2 31 2 5 28 3 110 -4 106 -4 -3 -5 1 -2 9 3 8 -2 17 -12 21 -12
5 -15 2 -10 -10 5 -14 4 -15 -8 -5 -8 7 -20 10 -26 6 -5 -3 -10 -1 -10 5 0 8
-6 8 -20 0 -14 -8 -20 -8 -20 0 0 6 -4 9 -10 5 -5 -3 -6 -13 -3 -23 6 -15 5
-16 -13 -2 -18 14 -18 14 -1 -6 9 -11 17 -23 17 -27 0 -8 -137 -3 -146 6 -4 4
-2 7 5 7 7 0 10 4 6 9 -3 5 -1 12 4 16 6 3 8 -4 6 -16 -4 -17 -2 -19 10 -9 9
8 15 8 15 2 0 -6 8 -9 18 -8 9 2 17 11 17 21 0 10 -8 19 -17 21 -10 1 -18 -2
-18 -8 0 -6 -6 -5 -15 2 -8 7 -15 9 -15 5 0 -4 -7 -2 -15 5 -12 10 -15 10 -15
0 0 -8 -6 -9 -17 -5 -10 4 -31 8 -48 9 -16 1 -36 5 -44 10 -11 7 -13 5 -7 -9
5 -13 3 -15 -6 -8 -7 6 -21 9 -30 8 -25 -4 -31 11 -12 29 14 15 14 16 0 16 -9
0 -16 -5 -16 -12 0 -6 -3 -8 -6 -5 -4 4 -1 13 6 22 11 13 8 15 -19 15 -23 0
-30 -4 -25 -12 6 -10 4 -10 -7 0 -7 6 -28 12 -45 12 -30 0 -32 2 -31 31 l2 32
-65 1 -65 2 -3 32 c-3 28 -6 31 -32 28 -33 -4 -36 4 -35 80 l1 51 -54 2 c-30
1 -58 4 -62 6 -5 3 -10 -1 -13 -9z m117 -28 c-3 -4 -9 -8 -15 -8 -5 0 -9 4 -9
8 0 5 7 9 15 9 8 0 12 -4 9 -9z m-71 -13 c-3 -9 -8 -14 -10 -11 -3 3 -2 9 2
15 9 16 15 13 8 -4z m-198 -175 c-3 -5 -1 -10 6 -10 7 0 10 -3 6 -6 -9 -9 -28
6 -22 17 4 5 8 9 11 9 3 0 2 -4 -1 -10z m465 -10 c0 -5 -7 -6 -17 -3 -10 4
-14 2 -9 -5 3 -6 2 -13 -3 -16 -7 -5 -8 11 -2 32 3 7 31 0 31 -8z m-629 -93
c-10 -9 -11 -8 -5 6 3 10 9 15 12 12 3 -3 0 -11 -7 -18z m-247 -25 c3 -5 -1
-9 -9 -9 -8 0 -12 4 -9 9 3 4 7 8 9 8 2 0 6 -4 9 -8z m1283 -6 c0 -8 -6 -12
-15 -9 -11 5 -11 7 0 14 7 5 13 9 14 9 0 0 1 -6 1 -14z m-1436 -29 c-10 -9
-11 -8 -5 6 3 10 9 15 12 12 3 -3 0 -11 -7 -18z m1599 19 c0 -2 -8 -10 -17
-17 -16 -13 -17 -12 -4 4 13 16 21 21 21 13z m10 -130 c0 -3 -4 -8 -10 -11 -5
-3 -10 -1 -10 4 0 6 5 11 10 11 6 0 10 -2 10 -4z m-1558 -44 c17 -17 -4 -15
-28 2 -17 13 -17 14 -1 12 9 -1 23 -8 29 -14z m8 -32 c0 -5 -2 -10 -4 -10 -3
0 -8 5 -11 10 -3 6 -1 10 4 10 6 0 11 -4 11 -10z m1680 -1230 c3 -1 10 -2 15
-1 6 1 2 -5 -7 -12 -10 -8 -15 -16 -12 -19 3 -4 1 -9 -4 -12 -5 -3 -15 1 -22
9 -10 12 -9 15 4 15 9 0 16 5 16 11 0 5 -4 8 -9 4 -5 -3 -12 -1 -15 4 -5 8 15
8 34 1z m-1910 -12 c0 -4 -4 -8 -9 -8 -6 0 -12 4 -15 8 -3 5 1 9 9 9 8 0 15
-4 15 -9z m2101 -1 c-6 -8 -7 -18 -3 -22 4 -5 1 -5 -6 -1 -10 6 -10 11 -1 22
6 8 14 14 16 14 3 0 0 -6 -6 -13z m74 -6 c3 -5 2 -12 -3 -15 -5 -3 -9 1 -9 9
0 17 3 19 12 6z m-18 -106 c0 -8 -4 -15 -9 -15 -4 0 -8 7 -8 15 0 8 4 15 8 15
5 0 9 -7 9 -15z"/>
<path d="M1750 2300 c0 -5 6 -10 13 -10 8 0 7 -4 -3 -10 -8 -5 -10 -10 -4 -10
16 0 23 10 17 26 -6 16 -23 19 -23 4z"/>
<path d="M1726 2262 c-3 -5 1 -9 9 -9 8 0 12 4 9 9 -3 4 -7 8 -9 8 -2 0 -6 -4
-9 -8z"/>
<path d="M611 2207 c-8 -10 -7 -14 2 -14 8 0 14 6 14 14 0 7 -1 13 -2 13 -2 0
-8 -6 -14 -13z"/>
<path d="M460 2094 c0 -1 8 -8 17 -15 14 -12 16 -12 9 0 -6 9 -5 12 5 9 8 -3
13 -14 11 -24 -2 -15 -1 -16 7 -4 13 19 -4 39 -30 37 -10 -1 -19 -2 -19 -3z"/>
<path d="M467 2059 c7 -7 15 -10 18 -7 3 3 -2 9 -12 12 -14 6 -15 5 -6 -5z"/>
<path d="M2065 2009 c-4 -11 -4 -23 -1 -26 3 -4 6 1 6 10 0 10 5 17 10 17 6 0
10 5 10 10 0 18 -19 10 -25 -11z"/>
<path d="M686 1642 c-3 -5 1 -9 9 -9 8 0 12 4 9 9 -3 4 -7 8 -9 8 -2 0 -6 -4
-9 -8z"/>
<path d="M1946 1642 c-3 -5 1 -9 9 -9 8 0 12 4 9 9 -3 4 -7 8 -9 8 -2 0 -6 -4
-9 -8z"/>
<path d="M2065 1491 c1 -31 38 -37 43 -8 3 16 0 18 -20 12 -19 -7 -21 -6 -11
7 10 12 10 15 -1 15 -7 0 -12 -11 -11 -26z"/>
<path d="M271 1366 c-10 -11 -9 -14 1 -12 14 2 23 15 15 22 -2 2 -10 -2 -16
-10z"/>
<path d="M309 1353 c-1 -5 -1 -12 0 -16 1 -5 -8 -6 -19 -2 -11 3 -20 2 -20 -3
0 -17 43 -7 46 11 1 9 0 17 -2 17 -2 0 -5 -3 -5 -7z"/>
<path d="M2354 1334 c-18 -14 -18 -15 4 -4 12 6 22 13 22 15 0 8 -5 6 -26 -11z"/>
<path d="M330 1299 c0 -5 5 -7 10 -4 6 3 10 8 10 11 0 2 -4 4 -10 4 -5 0 -10
-5 -10 -11z"/>
<path d="M375 1300 c3 -5 8 -10 11 -10 2 0 4 5 4 10 0 6 -5 10 -11 10 -5 0 -7
-4 -4 -10z"/>
<path d="M2291 1291 c-15 -10 -7 -31 12 -30 8 0 8 2 -1 6 -10 4 -10 8 -1 19
13 16 10 18 -10 5z"/>
<path d="M342 1277 c-8 -10 -6 -13 11 -14 15 -2 18 0 8 6 -11 7 -11 9 0 14 8
3 9 6 3 6 -6 1 -16 -5 -22 -12z"/>
<path d="M2135 889 c-4 -6 -5 -12 -2 -15 2 -3 7 2 10 11 7 17 1 20 -8 4z"/>
<path d="M74 624 c0 -12 4 -20 8 -18 4 3 8 0 8 -7 0 -9 3 -9 14 0 20 16 13 46
-10 47 -14 1 -20 -5 -20 -22z m26 6 c-12 -8 -12 -10 -1 -10 8 0 12 -3 8 -6 -9
-9 -28 6 -22 17 4 5 12 9 18 9 7 0 6 -4 -3 -10z"/>
<path d="M2529 608 c-11 -8 -11 -9 3 -5 9 3 18 1 21 -6 2 -8 5 -8 10 0 9 15
-17 23 -34 11z"/>
<path d="M2460 560 c0 -5 5 -10 10 -10 6 0 10 5 10 10 0 6 -4 10 -10 10 -5 0
-10 -4 -10 -10z"/>
<path d="M2485 540 c-3 -6 1 -7 9 -4 18 7 21 14 7 14 -6 0 -13 -4 -16 -10z"/>
</g>
</svg>
